<svg width="1024" height="1024" viewBox="0 0 1024 1024" fill="none" xmlns="http://www.w3.org/2000/svg">
<path d="M605.369 550.225L709.287 653.917L655.097 707.99L551.179 604.298V750.939H474.563V605.731L372.082 707.99L317.891 653.917L421.809 550.225H273.368V473.775H420.329L316.411 370.083L370.602 316.01L474.541 419.724V273.061H551.157V421.18L656.534 316.032L710.724 370.105L606.806 473.797H921.956C902.666 265.261 726.901 102 512.904 102C285.974 102 102 285.574 102 511.989C102 738.404 285.974 922 512.904 922C726.923 922 902.688 758.739 922 550.225H605.391H605.369Z" fill="white" style="fill:white;fill-opacity:1;"/>
</svg>
